<svg xmlns="http://www.w3.org/2000/svg" viewBox="0 0 100 100">
  <circle cx="50" cy="50" r="45" fill="#004165"/>
  <path d="M50 15C30.67 15 15 30.67 15 50s15.67 35 35 35 35-15.67 35-35S69.33 15 50 15zm0 65c-16.57 0-30-13.43-30-30S33.43 20 50 20s30 13.43 30 30-13.43 30-30 30z" fill="#D91C5C"/>
  <path d="M44 35h12v4H44zm0 8h12v4H44zm0 8h12v4H44zm-10 15h32v4H34z" fill="#F2DF74"/>
  <path d="M50 27c-12.7 0-23 10.3-23 23s10.3 23 23 23 23-10.3 23-23-10.3-23-23-23zm0 42c-10.5 0-19-8.5-19-19s8.5-19 19-19 19 8.5 19 19-8.5 19-19 19z" fill="#F2DF74"/>
</svg>
