<svg version="1.1" id="Layer_1" xmlns="http://www.w3.org/2000/svg" xmlns:xlink="http://www.w3.org/1999/xlink" x="0px" y="0px"
         viewBox="0 0 242.3 242.3" style="enable-background:new 0 0 242.3 242.3;" xml:space="preserve">
<style type="text/css">
        .st0{fill:#004165;}
        .st1{fill:#772432;}
        .st2{fill:#FFFFFF;}
</style>
<g>
        <path class="st0" d="M121.1,0C54.2,0,0,54.2,0,121.1c0,66.9,54.2,121.1,121.1,121.1c66.9,0,121.1-54.2,121.1-121.1
                C242.3,54.2,188,0,121.1,0z"/>
        <path class="st1" d="M121.1,242.3c-66.9,0-121.1-54.2-121.1-121.1S54.2,0,121.1,0s121.1,54.2,121.1,121.1S188,242.3,121.1,242.3z
                 M121.1,7.1C58.2,7.1,7.1,58.2,7.1,121.1s51.1,114,114,114s114-51.1,114-114S184.1,7.1,121.1,7.1z"/>
        <path class="st0" d="M121.1,213.2c-50.8,0-92.1-41.3-92.1-92.1s41.3-92.1,92.1-92.1c50.8,0,92.1,41.3,92.1,92.1
                S172,213.2,121.1,213.2z"/>
        <path class="st2" d="M95.1,182.5c-1.9,0-3.5-1.5-3.6-3.4l-1.9-40.9c-0.1-2,1.5-3.6,3.5-3.7c0,0,0.1,0,0.1,0
                c1.9,0,3.5,1.5,3.6,3.4l1.9,40.9c0.1,2-1.5,3.6-3.5,3.7C95.2,182.5,95.1,182.5,95.1,182.5z"/>
        <path class="st2" d="M146.9,182.5c-1.9,0-3.5-1.5-3.6-3.4l-1.9-40.9c-0.1-2,1.5-3.6,3.5-3.7c0,0,0.1,0,0.1,0
                c1.9,0,3.5,1.5,3.6,3.4l1.9,40.9c0.1,2-1.5,3.6-3.5,3.7C147,182.5,147,182.5,146.9,182.5z"/>
        <path class="st2" d="M77.8,130.1c-0.1,0-0.2,0-0.3,0c-2-0.2-3.4-1.9-3.2-3.9l6.8-61.7c0.2-2,1.9-3.4,3.9-3.2
                c2,0.2,3.4,1.9,3.2,3.9L81.4,127C81.2,128.8,79.6,130.1,77.8,130.1z"/>
        <path class="st2" d="M95.1,130.1c-0.1,0-0.2,0-0.3,0c-2-0.2-3.4-1.9-3.2-3.9l6.8-61.7c0.2-2,1.9-3.4,3.9-3.2
                c2,0.2,3.4,1.9,3.2,3.9L98.7,127C98.5,128.8,96.9,130.1,95.1,130.1z"/>
        <path class="st2" d="M112.3,130.1c-0.1,0-0.2,0-0.3,0c-2-0.2-3.4-1.9-3.2-3.9l6.8-61.7c0.2-2,1.9-3.4,3.9-3.2
                c2,0.2,3.4,1.9,3.2,3.9L116,127C115.8,128.8,114.2,130.1,112.3,130.1z"/>
        <path class="st2" d="M129.6,130.1c-0.1,0-0.2,0-0.3,0c-2-0.2-3.4-1.9-3.2-3.9l6.8-61.7c0.2-2,1.9-3.4,3.9-3.2
                c2,0.2,3.4,1.9,3.2,3.9L133.2,127C133,128.8,131.4,130.1,129.6,130.1z"/>
        <path class="st2" d="M146.9,130.1c-0.1,0-0.2,0-0.3,0c-2-0.2-3.4-1.9-3.2-3.9l6.8-61.7c0.2-2,1.9-3.4,3.9-3.2
                c2,0.2,3.4,1.9,3.2,3.9L150.5,127C150.3,128.8,148.7,130.1,146.9,130.1z"/>
        <path class="st2" d="M164.1,130.1c-0.1,0-0.2,0-0.3,0c-2-0.2-3.4-1.9-3.2-3.9l6.8-61.7c0.2-2,1.9-3.4,3.9-3.2
                c2,0.2,3.4,1.9,3.2,3.9L167.8,127C167.6,128.8,166,130.1,164.1,130.1z"/>
        <path class="st2" d="M112.3,182.5c-1.9,0-3.5-1.5-3.6-3.4l-1.9-40.9c-0.1-2,1.5-3.6,3.5-3.7c0,0,0.1,0,0.1,0
                c1.9,0,3.5,1.5,3.6,3.4l1.9,40.9c0.1,2-1.5,3.6-3.5,3.7C112.4,182.5,112.4,182.5,112.3,182.5z"/>
        <path class="st2" d="M129.6,182.5c-1.9,0-3.5-1.5-3.6-3.4l-1.9-40.9c-0.1-2,1.5-3.6,3.5-3.7c0,0,0.1,0,0.1,0
                c1.9,0,3.5,1.5,3.6,3.4l1.9,40.9c0.1,2-1.5,3.6-3.5,3.7C129.7,182.5,129.6,182.5,129.6,182.5z"/>
        <path class="st2" d="M164.1,182.5c-1.9,0-3.5-1.5-3.6-3.4l-1.9-40.9c-0.1-2,1.5-3.6,3.5-3.7c0,0,0.1,0,0.1,0
                c1.9,0,3.5,1.5,3.6,3.4l1.9,40.9c0.1,2-1.5,3.6-3.5,3.7C164.2,182.5,164.2,182.5,164.1,182.5z"/>
        <path class="st2" d="M77.8,182.5c-1.9,0-3.5-1.5-3.6-3.4l-1.9-40.9c-0.1-2,1.5-3.6,3.5-3.7c0,0,0.1,0,0.1,0
                c1.9,0,3.5,1.5,3.6,3.4l1.9,40.9c0.1,2-1.5,3.6-3.5,3.7C77.9,182.5,77.9,182.5,77.8,182.5z"/>
</g>
</svg>
